HIERARCHY
ROOT hips
{
  OFFSET -0.00735851563513279 12.18665635585785 0.12248523347079754
  CHANNELS 6 Xposition Yposition Zposition Yrotation Xrotation Zrotation
  JOINT spine
  {
    OFFSET 1.0244548320770264e-7 0.5955291986465454 0
    CHANNELS 3 Yrotation Xrotation Zrotation
    JOINT chest
    {
      OFFSET 0 1.2719063864449713 0
      CHANNELS 3 Yrotation Xrotation Zrotation
      JOINT upperChest
      {
        OFFSET 0 1.490802666915459 0
        CHANNELS 3 Yrotation Xrotation Zrotation
        JOINT neck
        {
          OFFSET 0 1.3131953345263365 0
          CHANNELS 3 Yrotation Xrotation Zrotation
          JOINT head
          {
            OFFSET 0 0.8653679716847534 0
            CHANNELS 3 Yrotation Xrotation Zrotation
            JOINT leftEye
            {
              OFFSET 0.20629723300226033 0.6721053123474121 0.3036841657012701
              CHANNELS 3 Yrotation Xrotation Zrotation
              End Site
              {
                OFFSET 0.20629723300226033 0.6721053123474121 0.3036841657012701
              }
            }
            JOINT rightEye
            {
              OFFSET -0.20629652100615203 0.6721066236495972 0.30368443205952644
              CHANNELS 3 Yrotation Xrotation Zrotation
              End Site
              {
                OFFSET -0.20629652100615203 0.6721066236495972 0.30368443205952644
              }
            }
          }
        }
        JOINT leftShoulder
        {
          OFFSET 0.24624172446783632 0.959903359413147 0
          CHANNELS 3 Yrotation Xrotation Zrotation
          JOINT leftUpperArm
          {
            OFFSET 0.9650355761446514 0 0
            CHANNELS 3 Yrotation Xrotation Zrotation
            JOINT leftLowerArm
            {
              OFFSET 2.4419134471639827 0 0
              CHANNELS 3 Yrotation Xrotation Zrotation
              JOINT leftHand
              {
                OFFSET 2.3874557408809456 0 0
                CHANNELS 3 Yrotation Xrotation Zrotation
                JOINT leftIndexProximal
                {
                  OFFSET 0.7029628753662109 0.06118142604827881 0.23586585000157356
                  CHANNELS 3 Yrotation Xrotation Zrotation
                  JOINT leftIndexIntermediate
                  {
                    OFFSET 0.36102771759033203 -0.001475214958190918 0.056637559086084366
                    CHANNELS 3 Yrotation Xrotation Zrotation
                    JOINT leftIndexDistal
                    {
                      OFFSET 0.22344785928726196 -0.007408857345581055 0.02531452476978302
                      CHANNELS 3 Yrotation Xrotation Zrotation
                      End Site
                      {
                        OFFSET 0.22344785928726196 -0.007408857345581055 0.02531452476978302
                      }
                    }
                  }
                }
                JOINT leftLittleProximal
                {
                  OFFSET 0.6958752870559692 0.034375786781311035 -0.29472956992685795
                  CHANNELS 3 Yrotation Xrotation Zrotation
                  JOINT leftLittleIntermediate
                  {
                    OFFSET 0.34538060426712036 -0.0030041933059692383 0.00024324655532836914
                    CHANNELS 3 Yrotation Xrotation Zrotation
                    JOINT leftLittleDistal
                    {
                      OFFSET 0.19865047931671143 0.00746917724609375 -0.010377676226198673
                      CHANNELS 3 Yrotation Xrotation Zrotation
                      End Site
                      {
                        OFFSET 0.19865047931671143 0.00746917724609375 -0.010377676226198673
                      }
                    }
                  }
                }
                JOINT leftMiddleProximal
                {
                  OFFSET 0.7272291779518127 0.09209799766540527 0.05257739871740341
                  CHANNELS 3 Yrotation Xrotation Zrotation
                  JOINT leftMiddleIntermediate
                  {
                    OFFSET 0.40590834617614746 -0.014838695526123047 0.026817932724952698
                    CHANNELS 3 Yrotation Xrotation Zrotation
                    JOINT leftMiddleDistal
                    {
                      OFFSET 0.2495119571685791 -0.026458144187927246 0.010310646146535873
                      CHANNELS 3 Yrotation Xrotation Zrotation
                      End Site
                      {
                        OFFSET 0.2495119571685791 -0.026458144187927246 0.010310646146535873
                      }
                    }
                  }
                }
                JOINT leftRingProximal
                {
                  OFFSET 0.7334893345832825 0.09136629104614258 -0.1205735495314002
                  CHANNELS 3 Yrotation Xrotation Zrotation
                  JOINT leftRingIntermediate
                  {
                    OFFSET 0.3775520920753479 -0.005917906761169434 0.001896639820188284
                    CHANNELS 3 Yrotation Xrotation Zrotation
                    JOINT leftRingDistal
                    {
                      OFFSET 0.2177620530128479 0.007703900337219238 0.0027355607599020004
                      CHANNELS 3 Yrotation Xrotation Zrotation
                      End Site
                      {
                        OFFSET 0.2177620530128479 0.007703900337219238 0.0027355607599020004
                      }
                    }
                  }
                }
                JOINT leftThumbProximal
                {
                  OFFSET 0.02235114574432373 -0.07603192329406738 0.1950724683701992
                  CHANNELS 3 Yrotation Xrotation Zrotation
                  JOINT leftThumbIntermediate
                  {
                    OFFSET 0.3551589846611023 -0.02970755100250244 0.36741212010383606
                    CHANNELS 3 Yrotation Xrotation Zrotation
                    JOINT leftThumbDistal
                    {
                      OFFSET 0.23456048965454102 -0.016631245613098145 0.2093813568353653
                      CHANNELS 3 Yrotation Xrotation Zrotation
                      End Site
                      {
                        OFFSET 0.23456048965454102 -0.016631245613098145 0.2093813568353653
                      }
                    }
                  }
                }
              }
            }
          }
        }
        JOINT rightShoulder
        {
          OFFSET -0.24624088185373694 0.9600239992141724 0
          CHANNELS 3 Yrotation Xrotation Zrotation
          JOINT rightUpperArm
          {
            OFFSET -0.9650300767908009 0 0
            CHANNELS 3 Yrotation Xrotation Zrotation
            JOINT rightLowerArm
            {
              OFFSET -2.4420125187833426 0 0
              CHANNELS 3 Yrotation Xrotation Zrotation
              JOINT rightHand
              {
                OFFSET -2.3874255620910265 0 0
                CHANNELS 3 Yrotation Xrotation Zrotation
                JOINT rightIndexProximal
                {
                  OFFSET -0.7029609084129333 0.06117355823516846 0.23587234504520893
                  CHANNELS 3 Yrotation Xrotation Zrotation
                  JOINT rightIndexIntermediate
                  {
                    OFFSET -0.3610270619392395 -0.0014804601669311523 0.05664427950978279
                    CHANNELS 3 Yrotation Xrotation Zrotation
                    JOINT rightIndexDistal
                    {
                      OFFSET -0.2234485149383545 -0.0074127912521362305 0.025317884981632233
                      CHANNELS 3 Yrotation Xrotation Zrotation
                      End Site
                      {
                        OFFSET -0.2234485149383545 -0.0074127912521362305 0.025317884981632233
                      }
                    }
                  }
                }
                JOINT rightLittleProximal
                {
                  OFFSET -0.6958779096603394 0.034366607666015625 -0.29472311586141586
                  CHANNELS 3 Yrotation Xrotation Zrotation
                  JOINT rightLittleIntermediate
                  {
                    OFFSET -0.3453786373138428 -0.003008127212524414 0.00025422871112823486
                    CHANNELS 3 Yrotation Xrotation Zrotation
                    JOINT rightLittleDistal
                    {
                      OFFSET -0.19865179061889648 0.00746917724609375 -0.010371447540819645
                      CHANNELS 3 Yrotation Xrotation Zrotation
                      End Site
                      {
                        OFFSET -0.19865179061889648 0.00746917724609375 -0.010371447540819645
                      }
                    }
                  }
                }
                JOINT rightMiddleProximal
                {
                  OFFSET -0.7272304892539978 0.09209012985229492 0.05258418060839176
                  CHANNELS 3 Yrotation Xrotation Zrotation
                  JOINT rightMiddleIntermediate
                  {
                    OFFSET -0.4059063792228699 -0.014843940734863281 0.026821313425898552
                    CHANNELS 3 Yrotation Xrotation Zrotation
                    JOINT rightMiddleDistal
                    {
                      OFFSET -0.24951326847076416 -0.026460766792297363 0.010313207283616066
                      CHANNELS 3 Yrotation Xrotation Zrotation
                      End Site
                      {
                        OFFSET -0.24951326847076416 -0.026460766792297363 0.010313207283616066
                      }
                    }
                  }
                }
                JOINT rightRingProximal
                {
                  OFFSET -0.7334906458854675 0.09135580062866211 -0.12056719791144133
                  CHANNELS 3 Yrotation Xrotation Zrotation
                  JOINT rightRingIntermediate
                  {
                    OFFSET -0.37755340337753296 -0.005923151969909668 0.0019026175141334534
                    CHANNELS 3 Yrotation Xrotation Zrotation
                    JOINT rightRingDistal
                    {
                      OFFSET -0.21775943040847778 0.007701277732849121 0.0027383523993194103
                      CHANNELS 3 Yrotation Xrotation Zrotation
                      End Site
                      {
                        OFFSET -0.21775943040847778 0.007701277732849121 0.0027383523993194103
                      }
                    }
                  }
                }
                JOINT rightThumbProximal
                {
                  OFFSET -0.022347867488861084 -0.07603061199188232 0.19507363624870777
                  CHANNELS 3 Yrotation Xrotation Zrotation
                  JOINT rightThumbIntermediate
                  {
                    OFFSET -0.3550455570220947 -0.029461026191711426 0.36754218488931656
                    CHANNELS 3 Yrotation Xrotation Zrotation
                    JOINT rightThumbDistal
                    {
                      OFFSET -0.23451131582260132 -0.016489624977111816 0.20944765955209732
                      CHANNELS 3 Yrotation Xrotation Zrotation
                      End Site
                      {
                        OFFSET -0.23451131582260132 -0.016489624977111816 0.20944765955209732
                      }
                    }
                  }
                }
              }
            }
          }
        }
      }
    }
  }
  JOINT leftUpperLeg
  {
    OFFSET 0.8483456987887621 -0.42556869983673096 0
    CHANNELS 3 Yrotation Xrotation Zrotation
    JOINT leftLowerLeg
    {
      OFFSET 0 -4.6702112872869534 0
      CHANNELS 3 Yrotation Xrotation Zrotation
      JOINT leftFoot
      {
        OFFSET -0.13096565008163452 -5.202569782733917 -0.2985280640423298
        CHANNELS 3 Yrotation Xrotation Zrotation
        JOINT leftToes
        {
          OFFSET 0.01423943042755127 -0.7568342834711075 1.213271364569664
          CHANNELS 3 Yrotation Xrotation Zrotation
          End Site
          {
            OFFSET 0.01423943042755127 -0.7568342834711075 1.213271364569664
          }
        }
      }
    }
  }
  JOINT rightUpperLeg
  {
    OFFSET -0.8483468051999807 -0.42556607723236084 0
    CHANNELS 3 Yrotation Xrotation Zrotation
    JOINT rightLowerLeg
    {
      OFFSET 0 -4.670219469177788 0
      CHANNELS 3 Yrotation Xrotation Zrotation
      JOINT rightFoot
      {
        OFFSET 0.13097601756453514 -5.202573716640472 -0.29853164963424206
        CHANNELS 3 Yrotation Xrotation Zrotation
        JOINT rightToes
        {
          OFFSET -0.014232628047466278 -0.7568355947732925 1.213272675871849
          CHANNELS 3 Yrotation Xrotation Zrotation
          End Site
          {
            OFFSET -0.014232628047466278 -0.7568355947732925 1.213272675871849
          }
        }
      }
    }
  }
}
MOTION
Frames: 9
Frame Time: 0.03333333333333333
0 11.682712981546562 0 0 0 0 0 -4.610651315171937 0 0 3.0831277533083026 0 0 0 0 0 1.5275236235667615 0 0 0 0 0 0 0 0 0 0 0 1.5275236235667615 0 0 0 0 0 0 0 0 0 0 0 0 0 0 0 0 0 0 0 0 0 0 0 0 0 0 0 0 0 0 0 0 0 0 0 0 0 0 0 0 0 0 0 0 0 0 0 0 0 0 0 0 0 0 0 0 1.5275236235667615 0 0 0 0 0 0 0 0 0 0 0 0 0 0 0 0 0 0 0 0 0 0 0 0 0 0 0 0 0 0 0 0 0 0 0 0 0 0 0 0 0 0 0 0 0 0 0 0 0 0 0 0 0 0 0 0 0 -5.826343164929014 -0.3712483961610101 -3.6333298826370974 5.838118207697276 0 0 0 0 0 0 0 0 5.826343164929014 0.3712483961610101 -3.6333298826370974 -5.838118207697276 0 0 0 0 0 0
0 7.788475321031042 -0.0008061609189130192 0.03910716608012135 -3.3141586921633026 -0.04024184102655737 -0.5505615747674636 2.294756383816443 0.714430378186795 -0.6460556612976806 4.427223198290404 0.25244896709264436 0 0 0 0.6921262102357384 5.419498244321966 -1.4087732511995898 -0.05120907143121926 -6.8524930284486985 1.0023109503744991 0 0 0 0 0 0 -0.8578472623124951 1.805395224841822 -3.682512237480625 -6.443128179132673 -7.408784152045841 -15.56785142291036 -32.368290145932036 6.721579592240117 6.380674857953599 0.032048033272465 0.21208893045351662 4.367583247264534 0 0 0 0 0 0 0 0 0 0 0 0 0 0 0 0 0 0 0 0 0 0 0 0 0 0 0 0 0 0 0 0 0 0 0 0 0 0 0 0 0 0 0 0 0 6.270310059277197 1.0993639912666748 7.216577892787117 -1.6449739938423638 15.246083317178625 18.50062962405402 28.13499480822844 6.39128472824301 -9.886113495135456 -1.750435409552031 0.25478114305197364 -13.705564121497657 0 0 0 0 0 0 0 0 0 0 0 0 0 0 0 0 0 0 0 0 0 0 0 0 0 0 0 0 0 0 0 0 0 0 0 0 0 0 0 0 0 0 0 0 0 3.8082680758849117 -4.2278808929589315 -5.663091499722484 -1.6379749387392533 11.96765475060218 8.479202878216638 4.268658766787552 -6.636448352628656 -1.0737257193872103 0 0 0 -1.274008057328788 -6.965477140892958 3.156346442624176 -8.291562345803532 13.407504578709577 -14.47972720997875 6.202009204353166 -0.1700685182908133 0.5539477355778301 0 0 0
0 3.894237660515521 -0.0016123218378260385 0.08075370004664403 -6.628288013989973 -0.08296273304259733 -1.0616349908003184 9.205970554482168 1.3404172366900051 -1.2875090751001905 5.7740639577371775 0.49018037116507085 0 0 0 1.2932777169696383 9.32708974393274 -2.782311612322714 -0.22662089402570587 -13.703005489427467 2.03290909276449 0 0 0 0 0 0 -1.7319054172518258 2.0275851080205416 -7.369308455512261 -10.779521005889622 -16.251807739344592 -30.66121503662942 -64.75500938589852 15.806003483272596 8.200749790458042 0.08015565706376414 0.4211212660031741 8.735372624959258 0 0 0 0 0 0 0 0 0 0 0 0 0 0 0 0 0 0 0 0 0 0 0 0 0 0 0 0 0 0 0 0 0 0 0 0 0 0 0 0 0 0 0 0 0 12.436668086797994 -0.1087489432074532 14.342644425971503 2.1474776059504355 30.17768780455263 38.69866409911348 55.64552578156945 16.648227322515403 -15.75525100777762 -3.511392565141326 0.0875198769241872 -27.412495606249585 0 0 0 0 0 0 0 0 0 0 0 0 0 0 0 0 0 0 0 0 0 0 0 0 0 0 0 0 0 0 0 0 0 0 0 0 0 0 0 0 0 0 0 0 0 7.635762248843192 -8.457243017871448 -5.782494564641011 -2.2335937477605032 27.60943926613694 11.009658967632156 8.75049556301082 -13.171972313404577 -2.6723662591171014 0 0 0 -2.2421887521997683 -13.981730619358567 0.5851428992139543 -20.709196766038882 28.611396682496558 -26.880487931800136 12.402196703029148 -0.39897879966976446 1.086289677551798 0 0 0
0 0 -0.0024184827567390577 0.1252599656796215 -9.942384553200245 -0.12848939346718785 -1.5517502933296843 16.121607811280853 1.886557658302205 -1.9250341438491685 7.123463611427852 0.7133358645837089 0 0 0 1.806359671847555 13.247740660844094 -4.132557926412061 -0.5398679696574735 -20.54915623097621 3.1245628454959458 0 0 0 0 0 0 -2.618560431867366 2.1931152252156996 -11.05952455464975 -12.688355137297906 -25.896000724470838 -45.957801758270584 -98.77416543324401 24.388290125452844 4.499453496381439 0.14404564280473195 0.625882584670754 13.103481082913401 0 0 0 0 0 0 0 0 0 0 0 0 0 0 0 0 0 0 0 0 0 0 0 0 0 0 0 0 0 0 0 0 0 0 0 0 0 0 0 0 0 0 0 0 0 18.409187228417952 -2.0643970426655995 21.30197361846707 13.337592594538838 42.62337637889311 64.1130288747004 84.2238681800473 28.40016464859754 -16.040860342512435 -5.182621041113267 -0.49211050800840855 -41.108268012072024 0 0 0 0 0 0 0 0 0 0 0 0 0 0 0 0 0 0 0 0 0 0 0 0 0 0 0 0 0 0 0 0 0 0 0 0 0 0 0 0 0 0 0 0 0 11.525247596167493 -12.669047422970134 -6.192384305487498 -2.0210280450014757 43.26023141537668 13.868055857128677 13.574465309981692 -19.5585193929119 -4.8605399849196695 0 0 0 -2.9112764183764783 -21.033431122487716 -1.9607266350918284 -39.16764372163229 40.23255804343659 -45.32433789650784 18.600259791678344 -0.6840345617101857 1.5908161407218968 0 0 0
0 0.10937181876721597 0.05078858521197238 -0.9468863709132611 -8.984752679726707 -0.7437729040779923 -2.5056329131175223 15.907153559971652 0.6401051115144051 -3.383182842332688 6.029477939531938 3.433483655734526 0 0 0 2.6934164743811726 14.375965626281102 -1.3674972451729264 2.3180333511731455 -21.395719073789373 -0.5621128121176109 0 0 0 0 0 0 -2.0598029800731306 2.1470300495339414 -7.588730630442886 -16.430216873299134 -25.764943956519037 -38.10611855243984 -103.78451953655409 24.833041923158437 4.871590838855009 -0.7071133135925521 1.0976014785464077 12.38704664260719 0 0 0 0 0 0 0 0 0 0 0 0 0 0 0 0 0 0 0 0 0 0 0 0 0 0 0 0 0 0 0 0 0 0 0 0 0 0 0 0 0 0 0 0 0 15.447208466847204 -1.1079686377410765 17.829412100406074 11.074610678235327 42.813953131178934 63.05399105129829 82.20291350027365 27.571524833107905 -15.947239363584615 -4.981847811757652 -0.5147702152890146 -38.09199119078265 0 0 0 0 0 0 0 0 0 0 0 0 0 0 0 0 0 0 0 0 0 0 0 0 0 0 0 0 0 0 0 0 0 0 0 0 0 0 0 0 0 0 0 0 0 11.6260976178386 -12.401321858658434 -5.092840356923372 -2.538812604904632 41.14166846950198 13.281705656136062 12.641767426908363 -17.943751719975964 -4.65276350655056 0 0 0 -5.852482912812866 -20.206402912074836 0.43230481596597037 -33.421661214261434 37.872490427661575 -38.59170892589827 18.559507912556146 -0.3758940466124994 1.6389467226139227 0 0 0
0 0.21874363753443193 0.10399565318068382 -2.026692987508758 -8.038685674863734 -1.37551631581037 -3.4718171775862223 15.6600131205741 -0.5860190355472675 -4.8891979748068515 5.00576196809907 6.175828837662396 0 0 0 3.64047245883042 15.461067788539701 1.4296094613005406 5.243813615332355 -22.067478501518057 -4.309197714067208 0 0 0 0 0 0 -1.504884646832893 2.0672299972708013 -4.118692767194759 -20.106268462546783 -25.17629346174653 -30.30392990820302 -108.8103910809243 25.305684449641085 5.200729447720534 -1.5642663501391385 1.5585889845267467 11.663547242787937 0 0 0 0 0 0 0 0 0 0 0 0 0 0 0 0 0 0 0 0 0 0 0 0 0 0 0 0 0 0 0 0 0 0 0 0 0 0 0 0 0 0 0 0 0 12.43333517421011 -0.33383149326434347 14.312769563145403 8.800768048665518 42.973586289285805 61.98248729870997 80.19535685940133 26.746304685516627 -15.821645301595012 -4.782544189456194 -0.54796257390614 -35.07579526270626 0 0 0 0 0 0 0 0 0 0 0 0 0 0 0 0 0 0 0 0 0 0 0 0 0 0 0 0 0 0 0 0 0 0 0 0 0 0 0 0 0 0 0 0 0 11.732081955000572 -12.135533831979766 -3.993928688531141 -3.012793539797412 39.01943414286137 12.737999162229272 11.723252155047863 -16.326018643800246 -4.474199453093133 0 0 0 -8.738364268472628 -19.26659298495799 2.7640766512696135 -28.239919404308058 35.025369477823325 -32.40102307807597 18.519015283359867 -0.06771947375764774 1.6868571628029951 0 0 0
0 0.3281154563016479 0.15720272114939526 -3.1145917316399694 -7.104606283674594 -2.0237368055362426 -4.449326128940887 15.381108669660984 -1.7902464874740833 -6.440528645112761 4.0552413648491905 8.940442167947177 0 0 0 4.646652282575009 16.49994199512949 4.2599145266256295 8.223030133973646 -22.558998654479026 -8.104110732737386 0 0 0 0 0 0 -0.9558490390745115 1.9540169137197858 -0.6497950544910812 -23.637416637416376 -24.145447427704656 -22.609278486942664 -113.85355701766622 25.802664134757475 5.483939170637761 -2.4273874742877832 2.008666556048567 10.933049483141112 0 0 0 0 0 0 0 0 0 0 0 0 0 0 0 0 0 0 0 0 0 0 0 0 0 0 0 0 0 0 0 0 0 0 0 0 0 0 0 0 0 0 0 0 0 9.377707861094795 0.25300178126217326 10.760353775990472 6.517896969058912 43.101881710521525 60.90063815510798 78.20001991305656 25.92548826697147 -15.664873286416451 -4.58526192870243 -0.5915953405279653 -32.05971858751377 0 0 0 0 0 0 0 0 0 0 0 0 0 0 0 0 0 0 0 0 0 0 0 0 0 0 0 0 0 0 0 0 0 0 0 0 0 0 0 0 0 0 0 0 0 11.843151215953961 -11.871780830913321 -2.8955959360274504 -3.4480673893048412 36.893962485758934 12.231754104960773 10.817132185551328 -14.705771478371041 -4.323861410890701 0 0 0 -11.564710066951637 -18.218581837050674 5.02944206645152 -23.626024404160496 31.76371332927637 -26.749668085111264 18.478781591847568 0.24048878532484988 1.7345500661773994 0 0 0
-0.04649073030745774 0.33295242181512574 0.1545154882649884 -3.6338587930208988 -6.168575779125568 -2.0160324413535444 -4.8442213276686905 14.840431971511961 -3.52974163025067 -7.132144078513153 4.094101342687106 11.243763587717956 0 0 0 4.87152160102812 16.687316194162566 6.424830903182766 9.405278720372786 -23.329765528905266 -9.374695070558277 0 0 0 0 0 0 -0.1346391881012248 1.8415930681971164 0.8618924876674884 -28.341495148834486 -22.552530914896288 -17.188585792936713 -106.38429310256689 24.33500331047591 4.664605412650415 -2.354757996551818 1.9829876095260328 11.092853523841674 0 0 0 0 0 0 0 0 0 0 0 0 0 0 0 0 0 0 0 0 0 0 0 0 0 0 0 0 0 0 0 0 0 0 0 0 0 0 0 0 0 0 0 0 0 8.059329736357554 0.04006173078908836 12.950013690307113 -1.3895000940981577 32.17127995240835 49.40225261773571 71.91978562895751 21.572825323181863 -7.8605420521939555 -5.298548952022971 -1.643246052709662 -30.641949679119815 0 0 0 0 0 0 0 0 0 0 0 0 0 0 0 0 0 0 0 0 0 0 0 0 0 0 0 0 0 0 0 0 0 0 0 0 0 0 0 0 0 0 0 0 0 12.266056143633302 -13.606205043385586 -2.363715782111616 -3.4650558170677335 38.10324117752079 11.865951072505862 9.647479152034009 -13.434203781879466 -3.956678276835838 0 0 0 -13.809277545555233 -16.441867169820593 6.262560290381459 -20.984600991825406 28.631063114676724 -23.818422966569752 18.371819038759366 -2.2687404832301015 0.8708499808608555 0 0 0
-0.09298146061491548 0.33778938732860364 0.1518282553805815 -4.152152927874068 -5.232514448130327 -2.0168591730250687 -5.248668535977594 14.273855542015877 -5.256736234812615 -7.821680110296137 4.16065228553269 13.546598588445951 0 0 0 5.103843656762527 16.866409352265553 8.592587164378628 10.612843997773771 -24.075965672751796 -10.669828459330773 0 0 0 0 0 0 0.6832631891967397 1.7075692197416998 2.371712240005507 -32.80682138159992 -20.566736544816017 -11.991491292008634 -98.97347747478756 22.975788552105037 3.6537210447239357 -2.2822015046171855 1.9571063854377087 11.252622074774642 0 0 0 0 0 0 0 0 0 0 0 0 0 0 0 0 0 0 0 0 0 0 0 0 0 0 0 0 0 0 0 0 0 0 0 0 0 0 0 0 0 0 0 0 0 6.7337767511074595 -0.12229891216660808 15.143997367174505 -6.124532056833402 20.321740323361013 40.65318411889288 65.22975250032363 18.05601218587548 0.20589551058524727 -6.03815405594049 -2.6768403224509902 -29.21021258101083 0 0 0 0 0 0 0 0 0 0 0 0 0 0 0 0 0 0 0 0 0 0 0 0 0 0 0 0 0 0 0 0 0 0 0 0 0 0 0 0 0 0 0 0 0 12.67557082032002 -15.34435170791984 -1.8409453030567962 -3.4923116535928638 39.31240340744098 11.49344493452719 8.49208133503548 -12.1556708909464 -3.6179715598519624 0 0 0 -15.994335121771977 -14.62099331167165 7.412137762128671 -18.59749099746664 25.390390693623978 -21.131751669539078 18.30252297617709 -4.779294969487974 0.009516704388048663 0 0 0
